<svg xmlns="http://www.w3.org/2000/svg" xmlns:xlink="http://www.w3.org/1999/xlink" width="204.997" height="300.659" viewBox="0 0 204.997 300.659">
  <defs>
    <linearGradient id="linear-gradient" x1="0.5" y1="0.16" x2="0.5" y2="1" gradientUnits="objectBoundingBox">
      <stop offset="0" stop-color="#fff"/>
      <stop offset="1" stop-color="#e0eaf9"/>
    </linearGradient>
    <clipPath id="clip-path">
      <path id="Path_12" data-name="Path 12" d="M-3.687,0H90.978L83.8,44.126a9.806,9.806,0,0,1-9.806,9.806A181,181,0,0,1,45.6,56.4a227.615,227.615,0,0,1-30.442-2.472,9.806,9.806,0,0,1-9.806-9.806Z" transform="translate(3.687)" fill="#fff"/>
    </clipPath>
    <linearGradient id="linear-gradient-2" x1="0.5" x2="0.5" y2="1" gradientUnits="objectBoundingBox">
      <stop offset="0" stop-color="#f6faff"/>
      <stop offset="1" stop-color="#e1ecfb"/>
    </linearGradient>
  </defs>
  <g id="_404" data-name="404" transform="translate(-991.485 -230.647)">
    <g id="Group_8" data-name="Group 8" transform="translate(1017.811 230.647)">
      <ellipse id="Ellipse_2" data-name="Ellipse 2" cx="60.806" cy="10.902" rx="60.806" ry="10.902" transform="translate(15.991 186.635)" fill="#a2b3d5"/>
      <path id="Path_11" data-name="Path 11" d="M-3.687,0H90.978L83.8,44.126a9.806,9.806,0,0,1-9.806,9.806A181,181,0,0,1,45.6,56.4a227.615,227.615,0,0,1-30.442-2.472,9.806,9.806,0,0,1-9.806-9.806Z" transform="translate(33.448 142.185)" fill="url(#linear-gradient)"/>
      <g id="Mask_Group_1" data-name="Mask Group 1" transform="translate(29.761 142.185)" clip-path="url(#clip-path)">
        <rect id="Rectangle_2" data-name="Rectangle 2" width="91.306" height="12.265" transform="translate(1.38 17.195)" fill="#aec7e6"/>
      </g>
      <path id="Union_2" data-name="Union 2" d="M22.614,32.967,18.424,14.82H7.41A7.41,7.41,0,0,1,7.41,0H24.865a7.374,7.374,0,0,1,4,1.174,8.052,8.052,0,0,1,4.209,5.38l5.26,22.784a8.069,8.069,0,1,1-15.724,3.63Z" transform="translate(43.405 63.985) rotate(180)" fill="#c0d1e8"/>
      <rect id="Rectangle_12" data-name="Rectangle 12" width="5.451" height="14.772" transform="translate(28.415 49.213)" fill="#94adcc"/>
      <g id="Group_9" data-name="Group 9" transform="translate(109.302 48.29)">
        <path id="Union_1" data-name="Union 1" d="M30.215,48.564q-.247.014-.5.014H8.448a8.448,8.448,0,1,1,0-16.9H21.2V9.541a9.541,9.541,0,0,1,19.083,0v29.5a9.541,9.541,0,0,1-9.542,9.541Q30.478,48.578,30.215,48.564Z" transform="translate(0 2.549)" fill="#c0d1e8"/>
        <rect id="Rectangle_9" data-name="Rectangle 9" width="4.739" height="16.587" transform="translate(8.294 34.54)" fill="#94adcc"/>
        <path id="Line_8" data-name="Line 8" d="M-.077,2.978a.924.924,0,0,1-.876-.632A.923.923,0,0,1-.369,1.179L6.026-.953a.923.923,0,0,1,1.168.584A.923.923,0,0,1,6.609.8L.215,2.931A.923.923,0,0,1-.077,2.978Z" transform="translate(39.495 23.38)" fill="#94adcc"/>
        <path id="Line_9" data-name="Line 9" d="M-.077,7.241a.922.922,0,0,1-.292-.048A.923.923,0,0,1-.953,6.026L1.179-.369A.923.923,0,0,1,2.347-.953.923.923,0,0,1,2.931.215L.8,6.609A.924.924,0,0,1-.077,7.241Z" transform="translate(33.1 1)" fill="#94adcc"/>
        <path id="Line_10" data-name="Line 10" d="M8.448,5.11a.919.919,0,0,1-.412-.1L-.49.749A.923.923,0,0,1-.9-.49.923.923,0,0,1,.336-.9L8.862,3.36A.923.923,0,0,1,8.448,5.11Z" transform="translate(16.049 27.643)" fill="#94adcc"/>
      </g>
      <path id="Path_13" data-name="Path 13" d="M45.352,0A45.352,45.352,0,0,1,90.7,45.352l-5.863,87.027H6.243L0,45.352A45.352,45.352,0,0,1,45.352,0Z" transform="translate(31.445)" fill="#c1d3eb"/>
      <rect id="Rectangle_4" data-name="Rectangle 4" width="6.814" height="74.952" rx="3.407" transform="translate(96.016 29.916)" fill="#94adcc"/>
      <rect id="Rectangle_5" data-name="Rectangle 5" width="6.814" height="74.952" rx="3.407" transform="translate(49.528 29.916)" fill="#94adcc"/>
      <rect id="Rectangle_6" data-name="Rectangle 6" width="6.814" height="98.12" rx="3.407" transform="translate(73.54 17.651)" fill="#94adcc"/>
      <path id="Line_3" data-name="Line 3" d="M-.076,5.75a.922.922,0,0,1-.769-.411.923.923,0,0,1,.256-1.28l7.354-4.9a.923.923,0,0,1,1.28.256A.923.923,0,0,1,7.79.691L.435,5.594A.919.919,0,0,1-.076,5.75Z" transform="translate(111.194 16.011)" fill="#94adcc"/>
      <path id="Line_4" data-name="Line 4" d="M8.5,8.2a.92.92,0,0,1-.6-.222L-.678.624a.923.923,0,0,1-.1-1.3.923.923,0,0,1,1.3-.1L9.1,6.577A.923.923,0,0,1,8.5,8.2Z" transform="translate(40.102 6.205)" fill="#94adcc"/>
      <path id="Line_5" data-name="Line 5" d="M9.728,5.75a.919.919,0,0,1-.412-.1L-.49.749A.923.923,0,0,1-.9-.49.923.923,0,0,1,.336-.9L10.142,4A.923.923,0,0,1,9.728,5.75Z" transform="translate(25.393 77.298)" fill="#94adcc"/>
      <path id="Line_6" data-name="Line 6" d="M9.73,3.3a.925.925,0,0,1-.225-.028L-.3.819A.923.923,0,0,1-.972-.3.923.923,0,0,1,.147-.972L9.953,1.479A.923.923,0,0,1,9.73,3.3Z" transform="translate(30.296 116.521)" fill="#94adcc"/>
      <path id="Line_7" data-name="Line 7" d="M-.077,3.3a.924.924,0,0,1-.895-.7A.923.923,0,0,1-.3,1.479L9.505-.972a.923.923,0,0,1,1.12.672A.923.923,0,0,1,9.953.819L.147,3.27A.925.925,0,0,1-.077,3.3Z" transform="translate(113.646 116.521)" fill="#94adcc"/>
      <path id="Line_11" data-name="Line 11" d="M7.278,3.3a.922.922,0,0,1-.292-.048L-.369.8A.923.923,0,0,1-.953-.369.923.923,0,0,1,.215-.953L7.57,1.5a.923.923,0,0,1-.292,1.8Z" transform="translate(1 38.075)" fill="#94adcc"/>
      <path id="Line_12" data-name="Line 12" d="M-.077,5.749a.92.92,0,0,1-.653-.27.923.923,0,0,1,0-1.306l4.9-4.9a.923.923,0,0,1,1.306,0,.923.923,0,0,1,0,1.306l-4.9,4.9A.92.92,0,0,1-.077,5.749Z" transform="translate(18.952 27.542)" fill="#94adcc"/>
      <path id="Line_13" data-name="Line 13" d="M.051,6.549a1.064,1.064,0,0,1-.47-.109A1.024,1.024,0,0,1-.889,5.054L1.9-.429A1.062,1.062,0,0,1,3.316-.891,1.024,1.024,0,0,1,3.787.494L.993,5.978A1.055,1.055,0,0,1,.051,6.549Z" transform="translate(15.901 62.566)" fill="#94adcc"/>
      <rect id="Rectangle_14" data-name="Rectangle 14" width="78.476" height="4.616" transform="translate(37.709 128.657)" fill="#a1b7d6"/>
      <rect id="Rectangle_13" data-name="Rectangle 13" width="118.561" height="29.981" rx="14.99" transform="translate(18.875 132.124)" fill="url(#linear-gradient-2)"/>
    </g>
    <path id="Path_14" data-name="Path 14" d="M70.084-37.272H58.5v14.94H42.439v-14.94H4.123V-48.351L37.662-93.476H54.94L23.84-50.688H42.947V-64H58.5v13.314H70.084Zm35.369,16.16A28.846,28.846,0,0,1,89.7-25.483,29.328,29.328,0,0,1,78.875-38.136Q74.962-46.42,74.962-57.9t3.913-19.768A29.328,29.328,0,0,1,89.7-90.326a28.847,28.847,0,0,1,15.753-4.37,28.847,28.847,0,0,1,15.753,4.37A29.328,29.328,0,0,1,132.03-77.672q3.913,8.283,3.913,19.768T132.03-38.136a29.328,29.328,0,0,1-10.824,12.654A28.846,28.846,0,0,1,105.453-21.112Zm0-13.924a11.634,11.634,0,0,0,10.214-5.59q3.71-5.59,3.71-17.278t-3.71-17.278a11.634,11.634,0,0,0-10.214-5.59,11.548,11.548,0,0,0-10.113,5.59q-3.71,5.59-3.71,17.278t3.71,17.278A11.548,11.548,0,0,0,105.453-35.036ZM209.12-37.272H197.534v14.94H181.476v-14.94H143.159V-48.351L176.7-93.476h17.278l-31.1,42.788h19.107V-64h15.55v13.314H209.12Z" transform="translate(987.362 552.419)" fill="#bdcae5"/>
  </g>
</svg>
